<?xml version="1.0" encoding="utf-8"?>
<!-- Generator: Adobe Illustrator 25.0.0, SVG Export Plug-In . SVG Version: 6.00 Build 0)  -->
<svg version="1.1" xmlns="http://www.w3.org/2000/svg" xmlns:xlink="http://www.w3.org/1999/xlink" x="0px" y="0px"
	 viewBox="0 0 419.2 419.2" style="enable-background:new 0 0 419.2 419.2;" xml:space="preserve">
<style type="text/css">
	.st0{fill:#FFFFFF00;}
	.st1{fill:url(#SVGID_1_);}
	.st2{fill:url(#SVGID_2_);}
	.st3{fill:url(#SVGID_3_);}
	.st4{fill:url(#SVGID_4_);}
	.st5{fill:url(#SVGID_5_);}
	.st6{fill:url(#SVGID_6_);}
	.st7{fill:url(#SVGID_7_);}
	.st8{fill:url(#SVGID_8_);}
	.st9{fill:url(#SVGID_9_);}
	.st10{fill:url(#SVGID_10_);}
	.st11{fill:url(#SVGID_11_);}
	.st12{fill:url(#SVGID_12_);}
	.st13{fill:url(#SVGID_13_);}
	.st14{fill:url(#SVGID_14_);}
	.st15{fill:url(#SVGID_15_);}
	.st16{fill:url(#SVGID_16_);}
	.st17{fill:url(#SVGID_17_);}
	.st18{fill:url(#SVGID_18_);}
	.st19{fill:url(#SVGID_19_);}
	.st20{fill:url(#SVGID_20_);}
	.st21{fill:url(#SVGID_21_);}
	.st22{fill:url(#SVGID_22_);}
	.st23{fill:url(#SVGID_23_);}
	.st24{fill:url(#SVGID_24_);}
	.st25{fill:url(#SVGID_25_);}
	.st26{fill:url(#SVGID_26_);}
	.st27{fill:url(#SVGID_27_);}
	.st28{fill:url(#SVGID_28_);}
	.st29{fill:url(#SVGID_29_);}
	.st30{fill:url(#SVGID_30_);}
	.st31{fill:url(#SVGID_31_);}
	.st32{fill:url(#SVGID_32_);}
	.st33{fill:url(#SVGID_33_);}
	.st34{fill:url(#SVGID_34_);}
	.st35{fill:url(#SVGID_35_);}
	.st36{fill:url(#SVGID_36_);}
	.st37{fill:url(#SVGID_37_);}
	.st38{fill:url(#SVGID_38_);}
	.st39{fill:url(#SVGID_39_);}
	.st40{fill:url(#SVGID_40_);}
	.st41{fill:url(#SVGID_41_);}
	.st42{fill:url(#SVGID_42_);}
	.st43{fill:url(#SVGID_43_);}
	.st44{fill:url(#SVGID_44_);}
	.st45{fill:url(#SVGID_45_);}
	.st46{fill:url(#SVGID_46_);}
	.st47{fill:url(#SVGID_47_);}
	.st48{fill:url(#SVGID_48_);}
	.st49{fill:url(#SVGID_49_);}
	.st50{fill:url(#SVGID_50_);}
	.st51{fill:url(#SVGID_50_);}
	.st52{fill:url(#SVGID_50_);}
</style>
<g id="BACKGROUND">
	<rect x="-40.4" y="-40.4" class="st0" width="500" height="500"/>
</g>
<g id="OBJECTS">
	<g>
		<g>
			
				<linearGradient id="SVGID_1_" gradientUnits="userSpaceOnUse" x1="545.5883" y1="1120.7762" x2="462.6391" y2="998.2378" gradientTransform="matrix(0.7071 0.7071 -0.7071 0.7071 589.9893 -732.0386)">
				<stop  offset="0" style="stop-color:#DA126A"/>
				<stop  offset="1" style="stop-color:#483ED5"/>
			</linearGradient>
			<path class="st1" d="M230.9,379.7l-24.3-24.3l-0.4-0.4l-32.5-32.5c-0.5,0.2-1,0.3-1.5,0.5l33,33l0.4,0.4l24.5,24.5
				C230.3,380.5,230.6,380.1,230.9,379.7z"/>
			
				<linearGradient id="SVGID_2_" gradientUnits="userSpaceOnUse" x1="552.9034" y1="1115.8251" x2="469.954" y2="993.2863" gradientTransform="matrix(0.7071 0.7071 -0.7071 0.7071 589.9893 -732.0386)">
				<stop  offset="0" style="stop-color:#DA126A"/>
				<stop  offset="1" style="stop-color:#483ED5"/>
			</linearGradient>
			<path class="st2" d="M216.8,345.2l-0.4-0.4L189,317.4c-0.5,0.1-1.1,0.3-1.6,0.5l28,28l0.4,0.4l21.2,21.2c0.2-0.5,0.3-1.1,0.4-1.6
				L216.8,345.2z"/>
			
				<linearGradient id="SVGID_3_" gradientUnits="userSpaceOnUse" x1="558.8696" y1="1111.7863" x2="475.9202" y2="989.2475" gradientTransform="matrix(0.7071 0.7071 -0.7071 0.7071 589.9893 -732.0386)">
				<stop  offset="0" style="stop-color:#DA126A"/>
				<stop  offset="1" style="stop-color:#483ED5"/>
			</linearGradient>
			<path class="st3" d="M226.9,335l-0.4-0.4l-18.5-18.5c-0.8-0.2-1.6-0.3-2.5-0.4l20,20l0.4,0.4l11.8,11.8c-0.2-0.9-0.4-1.8-0.7-2.7
				L226.9,335z"/>
			
				<linearGradient id="SVGID_4_" gradientUnits="userSpaceOnUse" x1="549.4811" y1="1118.1416" x2="466.5318" y2="995.603" gradientTransform="matrix(0.7071 0.7071 -0.7071 0.7071 589.9893 -732.0386)">
				<stop  offset="0" style="stop-color:#DA126A"/>
				<stop  offset="1" style="stop-color:#483ED5"/>
			</linearGradient>
			<path class="st4" d="M211.7,350.3l-0.4-0.4l-30.1-30.1c-0.5,0.2-1,0.4-1.5,0.5l30.5,30.5l0.4,0.4l23.4,23.4
				c0.2-0.4,0.5-0.9,0.7-1.4L211.7,350.3z"/>
			
				<linearGradient id="SVGID_5_" gradientUnits="userSpaceOnUse" x1="556.0201" y1="1113.7151" x2="473.0707" y2="991.1763" gradientTransform="matrix(0.7071 0.7071 -0.7071 0.7071 589.9893 -732.0386)">
				<stop  offset="0" style="stop-color:#DA126A"/>
				<stop  offset="1" style="stop-color:#483ED5"/>
			</linearGradient>
			<path class="st5" d="M221.8,340.1l-0.4-0.4l-24-24c-0.6,0.1-1.2,0.1-1.8,0.2l24.8,24.8l0.4,0.4l17.7,17.7c0-0.6,0.1-1.3,0.1-2
				L221.8,340.1z"/>
			
				<linearGradient id="SVGID_6_" gradientUnits="userSpaceOnUse" x1="491.546" y1="1157.3591" x2="408.5965" y2="1034.8202" gradientTransform="matrix(0.7071 0.7071 -0.7071 0.7071 589.9893 -732.0386)">
				<stop  offset="0" style="stop-color:#DA126A"/>
				<stop  offset="1" style="stop-color:#483ED5"/>
			</linearGradient>
			<path class="st6" d="M176,385.9l-0.4-0.4L125.1,335l-0.4-0.4l-37.4-37.4c-0.7,0-1.3,0-2,0l38.4,38.4l0.4,0.4l50.6,50.6l0.4,0.4
				l8.6,8.6c1,0.3,1.9,0.6,2.9,0.9L176,385.9z"/>
			
				<linearGradient id="SVGID_7_" gradientUnits="userSpaceOnUse" x1="514.647" y1="1141.7213" x2="431.6977" y2="1019.1826" gradientTransform="matrix(0.7071 0.7071 -0.7071 0.7071 589.9893 -732.0386)">
				<stop  offset="0" style="stop-color:#DA126A"/>
				<stop  offset="1" style="stop-color:#483ED5"/>
			</linearGradient>
			<path class="st7" d="M186.2,375.7l-0.4-0.4l-50.6-50.6l-0.4-0.4l-8.8-8.8c-2.3-1.6-4.6-3.3-6.9-4.9l14.8,14.8l0.4,0.4l50.6,50.6
				l0.4,0.4l20.2,20.2c0.5-0.1,1.1-0.3,1.6-0.4L186.2,375.7z"/>
			
				<linearGradient id="SVGID_8_" gradientUnits="userSpaceOnUse" x1="535.6847" y1="1127.4805" x2="452.7353" y2="1004.9417" gradientTransform="matrix(0.7071 0.7071 -0.7071 0.7071 589.9893 -732.0386)">
				<stop  offset="0" style="stop-color:#DA126A"/>
				<stop  offset="1" style="stop-color:#483ED5"/>
			</linearGradient>
			<path class="st8" d="M196.4,365.6l-0.4-0.4l-38.7-38.7c-0.7,0-1.3,0.1-1.9,0.1l39.6,39.6l0.4,0.4l24.1,24.1
				c0.4-0.3,0.8-0.5,1.2-0.8L196.4,365.6z"/>
			
				<linearGradient id="SVGID_9_" gradientUnits="userSpaceOnUse" x1="501.1947" y1="1150.8274" x2="418.2452" y2="1028.2886" gradientTransform="matrix(0.7071 0.7071 -0.7071 0.7071 589.9893 -732.0386)">
				<stop  offset="0" style="stop-color:#DA126A"/>
				<stop  offset="1" style="stop-color:#483ED5"/>
			</linearGradient>
			<path class="st9" d="M181.1,380.8l-0.4-0.4l-50.6-50.6l-0.4-0.4l-30-30c-1-0.3-2-0.7-3-0.9l31.9,31.9l0.4,0.4l50.6,50.6l0.4,0.4
				l16.1,16.1c0.7,0,1.3,0,2,0L181.1,380.8z"/>
			
				<linearGradient id="SVGID_10_" gradientUnits="userSpaceOnUse" x1="528.4028" y1="1132.4094" x2="445.4534" y2="1009.8707" gradientTransform="matrix(0.7071 0.7071 -0.7071 0.7071 589.9893 -732.0386)">
				<stop  offset="0" style="stop-color:#DA126A"/>
				<stop  offset="1" style="stop-color:#483ED5"/>
			</linearGradient>
			<path class="st10" d="M191.3,370.7l-0.4-0.4l-44.7-44.7c-0.9-0.2-1.9-0.5-2.8-0.8l46.5,46.5l0.4,0.4l22.7,22.7
				c0.5-0.2,0.9-0.4,1.4-0.6L191.3,370.7z"/>
			
				<linearGradient id="SVGID_11_" gradientUnits="userSpaceOnUse" x1="541.1031" y1="1123.8129" x2="458.1538" y2="1001.2742" gradientTransform="matrix(0.7071 0.7071 -0.7071 0.7071 589.9893 -732.0386)">
				<stop  offset="0" style="stop-color:#DA126A"/>
				<stop  offset="1" style="stop-color:#483ED5"/>
			</linearGradient>
			<path class="st11" d="M201.5,360.5l-0.4-0.4L166,325c-0.5,0.1-1.1,0.3-1.6,0.4l35.8,35.8l0.4,0.4l24.7,24.7c0.4-0.3,0.7-0.7,1-1
				L201.5,360.5z"/>
			
				<linearGradient id="SVGID_12_" gradientUnits="userSpaceOnUse" x1="458.7834" y1="1179.5367" x2="375.8338" y2="1056.9978" gradientTransform="matrix(0.7071 0.7071 -0.7071 0.7071 589.9893 -732.0386)">
				<stop  offset="0" style="stop-color:#DA126A"/>
				<stop  offset="1" style="stop-color:#483ED5"/>
			</linearGradient>
			<path class="st12" d="M104.7,355.4l-0.4-0.4l-46.7-46.7c-0.4,0.3-0.7,0.6-1.1,0.9l46.8,46.8l0.4,0.4l29.5,29.5
				c0.5-0.2,1-0.4,1.4-0.6L104.7,355.4z"/>
			
				<linearGradient id="SVGID_13_" gradientUnits="userSpaceOnUse" x1="470.6405" y1="1171.5104" x2="387.6911" y2="1048.9716" gradientTransform="matrix(0.7071 0.7071 -0.7071 0.7071 589.9893 -732.0386)">
				<stop  offset="0" style="stop-color:#DA126A"/>
				<stop  offset="1" style="stop-color:#483ED5"/>
			</linearGradient>
			<path class="st13" d="M114.6,344.8l-44.2-44.2c-0.5,0.2-0.9,0.4-1.4,0.6l44.6,44.6l0.4,0.4l36.9,36.9c0.8,0.1,1.6,0.3,2.5,0.4
				l-38.4-38.4L114.6,344.8z"/>
			
				<linearGradient id="SVGID_14_" gradientUnits="userSpaceOnUse" x1="480.609" y1="1164.7625" x2="397.6596" y2="1042.2238" gradientTransform="matrix(0.7071 0.7071 -0.7071 0.7071 589.9893 -732.0386)">
				<stop  offset="0" style="stop-color:#DA126A"/>
				<stop  offset="1" style="stop-color:#483ED5"/>
			</linearGradient>
			<path class="st14" d="M119.7,339.8l-41.6-41.6c-0.6,0.1-1.1,0.2-1.6,0.4l42.2,42.2l0.4,0.4l46.8,46.8c1.3,0.6,2.5,1.1,3.8,1.7
				L120,340.1L119.7,339.8z"/>
			
				<linearGradient id="SVGID_15_" gradientUnits="userSpaceOnUse" x1="437.3461" y1="1194.0481" x2="354.3966" y2="1071.5092" gradientTransform="matrix(0.7071 0.7071 -0.7071 0.7071 589.9893 -732.0386)">
				<stop  offset="0" style="stop-color:#DA126A"/>
				<stop  offset="1" style="stop-color:#483ED5"/>
			</linearGradient>
			<path class="st15" d="M74.2,385.9l-0.4-0.4L36.3,348c0,0.6-0.1,1.3-0.1,1.9l36.6,36.6l0.4,0.4l16.2,16.2c0.6,0,1.2-0.1,1.9-0.2
				L74.2,385.9z"/>
			
				<linearGradient id="SVGID_16_" gradientUnits="userSpaceOnUse" x1="443.7492" y1="1189.7137" x2="360.7998" y2="1067.175" gradientTransform="matrix(0.7071 0.7071 -0.7071 0.7071 589.9893 -732.0386)">
				<stop  offset="0" style="stop-color:#DA126A"/>
				<stop  offset="1" style="stop-color:#483ED5"/>
			</linearGradient>
			<path class="st16" d="M84.4,375.7l-0.4-0.4l-43.7-43.7c-0.2,0.5-0.4,1-0.6,1.5L83,376.4l0.4,0.4l22.5,22.5c0.5-0.2,1-0.4,1.5-0.6
				L84.4,375.7z"/>
			
				<linearGradient id="SVGID_17_" gradientUnits="userSpaceOnUse" x1="434.1803" y1="1196.191" x2="351.231" y2="1073.6523" gradientTransform="matrix(0.7071 0.7071 -0.7071 0.7071 589.9893 -732.0386)">
				<stop  offset="0" style="stop-color:#DA126A"/>
				<stop  offset="1" style="stop-color:#483ED5"/>
			</linearGradient>
			<path class="st17" d="M69.1,391l-0.4-0.4l-32-32c0.1,0.8,0.3,1.7,0.5,2.5l30.5,30.5l0.4,0.4l10.5,10.5c0.8,0.2,1.6,0.3,2.4,0.4
				L69.1,391z"/>
			
				<linearGradient id="SVGID_18_" gradientUnits="userSpaceOnUse" x1="440.5367" y1="1191.8883" x2="357.5875" y2="1069.3499" gradientTransform="matrix(0.7071 0.7071 -0.7071 0.7071 589.9893 -732.0386)">
				<stop  offset="0" style="stop-color:#DA126A"/>
				<stop  offset="1" style="stop-color:#483ED5"/>
			</linearGradient>
			<path class="st18" d="M79.3,380.8l-0.4-0.4l-41.2-41.2c-0.1,0.5-0.3,1.1-0.4,1.6l40.6,40.6l0.4,0.4l19.9,19.9
				c0.5-0.1,1.1-0.3,1.6-0.4L79.3,380.8z"/>
			
				<linearGradient id="SVGID_19_" gradientUnits="userSpaceOnUse" x1="447.127" y1="1187.4271" x2="364.1777" y2="1064.8885" gradientTransform="matrix(0.7071 0.7071 -0.7071 0.7071 589.9893 -732.0386)">
				<stop  offset="0" style="stop-color:#DA126A"/>
				<stop  offset="1" style="stop-color:#483ED5"/>
			</linearGradient>
			<path class="st19" d="M89.5,370.7l-0.4-0.4l-45.5-45.5c-0.2,0.4-0.5,0.9-0.7,1.3l45.2,45.2l0.4,0.4l24.5,24.5
				c0.5-0.2,0.9-0.4,1.4-0.7L89.5,370.7z"/>
			
				<linearGradient id="SVGID_20_" gradientUnits="userSpaceOnUse" x1="450.7141" y1="1184.999" x2="367.7649" y2="1062.4606" gradientTransform="matrix(0.7071 0.7071 -0.7071 0.7071 589.9893 -732.0386)">
				<stop  offset="0" style="stop-color:#DA126A"/>
				<stop  offset="1" style="stop-color:#483ED5"/>
			</linearGradient>
			<path class="st20" d="M94.2,365.2l-46.5-46.5c-0.3,0.4-0.6,0.8-0.9,1.2l46.4,46.4l0.4,0.4l26.3,26.3c0.4-0.2,0.9-0.5,1.3-0.7
				l-26.6-26.6L94.2,365.2z"/>
			
				<linearGradient id="SVGID_21_" gradientUnits="userSpaceOnUse" x1="454.5615" y1="1182.3945" x2="371.6122" y2="1059.8558" gradientTransform="matrix(0.7071 0.7071 -0.7071 0.7071 589.9893 -732.0386)">
				<stop  offset="0" style="stop-color:#DA126A"/>
				<stop  offset="1" style="stop-color:#483ED5"/>
			</linearGradient>
			<path class="st21" d="M99.3,360.1l-46.9-46.9c-0.3,0.3-0.7,0.7-1,1.1l46.9,46.9l0.4,0.4l27.8,27.8c0.4-0.2,0.9-0.5,1.3-0.7
				l-28.2-28.2L99.3,360.1z"/>
			
				<linearGradient id="SVGID_22_" gradientUnits="userSpaceOnUse" x1="463.892" y1="1176.0786" x2="380.9426" y2="1053.5397" gradientTransform="matrix(0.7071 0.7071 -0.7071 0.7071 589.9893 -732.0386)">
				<stop  offset="0" style="stop-color:#DA126A"/>
				<stop  offset="1" style="stop-color:#483ED5"/>
			</linearGradient>
			<path class="st22" d="M108.8,351.3l32.1,32.1c0.6-0.1,1.2-0.2,1.7-0.3l-32.8-32.8l-0.4-0.4l-45.9-45.9c-0.4,0.3-0.8,0.5-1.2,0.8
				l46.1,46.1L108.8,351.3z"/>
			
				<linearGradient id="SVGID_23_" gradientUnits="userSpaceOnUse" x1="430.9204" y1="1198.3977" x2="347.9709" y2="1075.8588" gradientTransform="matrix(0.7071 0.7071 -0.7071 0.7071 589.9893 -732.0386)">
				<stop  offset="0" style="stop-color:#DA126A"/>
				<stop  offset="1" style="stop-color:#483ED5"/>
			</linearGradient>
			<path class="st23" d="M66.2,398.3l-2.2-2.2l-0.4-0.4l-22.1-22.1c0.8,1.6,1.6,3.1,2.5,4.5l17.6,17.6
				C63.1,396.7,64.6,397.5,66.2,398.3z"/>
		</g>
		
			<linearGradient id="SVGID_24_" gradientUnits="userSpaceOnUse" x1="401.4084" y1="102.914" x2="122.7227" y2="-130.101" gradientTransform="matrix(0.9707 -0.2402 0.2402 0.9707 -13.5909 298.9218)">
			<stop  offset="0" style="stop-color:#DA126A"/>
			<stop  offset="1" style="stop-color:#483ED5"/>
		</linearGradient>
		<path class="st24" d="M338,111.9c-17.4-35.2-51.2-49.4-88.8-43.7C182.8,78.2,22,164.5,25,252c1.3,39.1,37.2,64.4,70.1,80.4
			c50.5,24.5,110.5,41.5,166.9,35.8c19.6-2,40.1-7.5,55.7-20c16.7-13.4,25.7-35.2,31.5-55.2c7-24.1,10.3-50.7,9.9-75.8
			C358.5,182.8,353.5,143.2,338,111.9z"/>
		<g>
			<linearGradient id="SVGID_25_" gradientUnits="userSpaceOnUse" x1="367.8264" y1="286.3705" x2="59.3002" y2="135.8729">
				<stop  offset="0" style="stop-color:#DA126A"/>
				<stop  offset="1" style="stop-color:#483ED5"/>
			</linearGradient>
			<path class="st25" d="M239.8,380.3L239.8,380.3c-58.8,0-113.8-20.7-149.5-38c-49.4-24-75.1-54.3-76.3-89.9
				C10.7,156.7,178.6,67.7,247.6,57.3c5.9-0.9,11.7-1.3,17.4-1.3c36.7,0,66.9,18.6,82.9,51.1c13.9,28.3,21.4,65.3,22.2,110
				c0.5,27-3.1,54.4-10.3,79.1c-5.3,18.2-14.7,44.3-35.2,60.7c-15.4,12.3-36.1,19.8-61.5,22.4C255.5,380,247.7,380.3,239.8,380.3z
				 M239.8,378.3L239.8,378.3c7.8,0,15.6-0.4,23.1-1.1c25-2.5,45.4-9.9,60.4-22c20.1-16.1,29.3-41.7,34.6-59.7
				c7.2-24.5,10.7-51.7,10.2-78.5c-0.8-44.4-8.2-81.1-22-109.1c-15.7-31.8-45.2-50-81.1-50c-5.6,0-11.3,0.4-17.1,1.3
				C179.4,69.6,12.8,157.7,16,252.3c1.2,34.9,26.5,64.5,75.2,88.2C126.7,357.8,181.3,378.3,239.8,378.3z"/>
		</g>
		<linearGradient id="SVGID_26_" gradientUnits="userSpaceOnUse" x1="356.659" y1="328.2567" x2="92.3946" y2="107.2997">
			<stop  offset="0" style="stop-color:#DA126A"/>
			<stop  offset="1" style="stop-color:#483ED5"/>
		</linearGradient>
		<path class="st26" d="M342.3,138.6c-8-36.3-35.9-57.2-71.8-60.5c-63.4-5.9-231.1,37-248.3,118.1c-7.7,36.3,19.6,67.8,46.2,90
			c40.9,34,92.2,63.3,145.5,71c18.5,2.7,38.6,2.2,55.8-5.7c18.4-8.5,31.7-26.5,41.6-43.6c12-20.6,21-44.3,26.3-67.5
			C345,208.5,349.4,170.9,342.3,138.6z"/>
		<g>
			<linearGradient id="SVGID_27_" gradientUnits="userSpaceOnUse" x1="299.0549" y1="45.5087" x2="380.8135" y2="45.5087">
				<stop  offset="0" style="stop-color:#DA126A"/>
				<stop  offset="1" style="stop-color:#483ED5"/>
			</linearGradient>
			<path class="st27" d="M380.6,44.8h-34.4h-0.5h-45.9c-0.2,0.5-0.5,1-0.7,1.4h46.6h0.5h34.6C380.8,45.7,380.7,45.3,380.6,44.8z"/>
			<linearGradient id="SVGID_28_" gradientUnits="userSpaceOnUse" x1="306.123" y1="31.1083" x2="376.1862" y2="31.1083">
				<stop  offset="0" style="stop-color:#DA126A"/>
				<stop  offset="1" style="stop-color:#483ED5"/>
			</linearGradient>
			<path class="st28" d="M346.2,30.4h-0.5h-38.8c-0.3,0.5-0.5,1-0.8,1.4h39.6h0.5h30c-0.3-0.5-0.5-1-0.8-1.4H346.2z"/>
			<linearGradient id="SVGID_29_" gradientUnits="userSpaceOnUse" x1="317.4826" y1="16.7088" x2="362.8901" y2="16.7088">
				<stop  offset="0" style="stop-color:#DA126A"/>
				<stop  offset="1" style="stop-color:#483ED5"/>
			</linearGradient>
			<path class="st29" d="M346.2,16h-0.5h-26.2c-0.7,0.5-1.4,0.9-2,1.4h28.2h0.5h16.7c-0.8-0.5-1.6-1-2.4-1.4H346.2z"/>
			<linearGradient id="SVGID_30_" gradientUnits="userSpaceOnUse" x1="302.5122" y1="38.3085" x2="379.2307" y2="38.3085">
				<stop  offset="0" style="stop-color:#DA126A"/>
				<stop  offset="1" style="stop-color:#483ED5"/>
			</linearGradient>
			<path class="st30" d="M346.2,37.6h-0.5h-42.5c-0.2,0.5-0.5,1-0.7,1.4h43.2h0.5h33c-0.2-0.5-0.3-1-0.5-1.4H346.2z"/>
			<linearGradient id="SVGID_31_" gradientUnits="userSpaceOnUse" x1="310.5991" y1="23.9081" x2="371.2099" y2="23.9081">
				<stop  offset="0" style="stop-color:#DA126A"/>
				<stop  offset="1" style="stop-color:#483ED5"/>
			</linearGradient>
			<path class="st31" d="M346.2,23.2h-0.5h-34c-0.4,0.5-0.7,1-1.1,1.4h35.1h0.5h25c-0.4-0.5-0.9-1-1.3-1.4H346.2z"/>
			<linearGradient id="SVGID_32_" gradientUnits="userSpaceOnUse" x1="219.4406" y1="88.7088" x2="361.0899" y2="88.7088">
				<stop  offset="0" style="stop-color:#DA126A"/>
				<stop  offset="1" style="stop-color:#483ED5"/>
			</linearGradient>
			<path class="st32" d="M346.2,88h-0.5h-71.5h-0.5h-52.8c-0.5,0.5-1,1-1.4,1.4h54.3h0.5h71.5h0.5h12.2c0.9-0.5,1.8-0.9,2.7-1.4
				H346.2z"/>
			<linearGradient id="SVGID_33_" gradientUnits="userSpaceOnUse" x1="252.8303" y1="74.3085" x2="375.577" y2="74.3085">
				<stop  offset="0" style="stop-color:#DA126A"/>
				<stop  offset="1" style="stop-color:#483ED5"/>
			</linearGradient>
			<path class="st33" d="M346.2,73.6h-0.5h-71.5h-0.5h-12.5c-2.8,0.5-5.6,1-8.4,1.4h20.9h0.5h71.5h0.5h28.5c0.3-0.5,0.6-0.9,0.8-1.4
				H346.2z"/>
			<linearGradient id="SVGID_34_" gradientUnits="userSpaceOnUse" x1="289.6813" y1="59.9081" x2="380.5847" y2="59.9081">
				<stop  offset="0" style="stop-color:#DA126A"/>
				<stop  offset="1" style="stop-color:#483ED5"/>
			</linearGradient>
			<path class="st34" d="M346.2,59.2h-0.5H291c-0.4,0.5-0.9,1-1.3,1.4h56h0.5h34.1c0.1-0.5,0.2-1,0.3-1.4H346.2z"/>
			<linearGradient id="SVGID_35_" gradientUnits="userSpaceOnUse" x1="228.5473" y1="81.5087" x2="370.3753" y2="81.5087">
				<stop  offset="0" style="stop-color:#DA126A"/>
				<stop  offset="1" style="stop-color:#483ED5"/>
			</linearGradient>
			<path class="st35" d="M346.2,80.8h-0.5h-71.5h-0.5h-42.4c-0.9,0.5-1.9,0.9-2.8,1.4h45.2h0.5h71.5h0.5h22.7c0.5-0.5,1-0.9,1.4-1.4
				H346.2z"/>
			<linearGradient id="SVGID_36_" gradientUnits="userSpaceOnUse" x1="280.0107" y1="67.1083" x2="378.7665" y2="67.1083">
				<stop  offset="0" style="stop-color:#DA126A"/>
				<stop  offset="1" style="stop-color:#483ED5"/>
			</linearGradient>
			<path class="st36" d="M346.2,66.4h-0.5h-63.2c-0.8,0.5-1.7,1-2.5,1.4h65.7h0.5h32c0.2-0.5,0.4-1,0.5-1.4H346.2z"/>
			<linearGradient id="SVGID_37_" gradientUnits="userSpaceOnUse" x1="295.1306" y1="52.7089" x2="381.1909" y2="52.7089">
				<stop  offset="0" style="stop-color:#DA126A"/>
				<stop  offset="1" style="stop-color:#483ED5"/>
			</linearGradient>
			<path class="st37" d="M346.2,52h-0.5H296c-0.3,0.5-0.6,1-0.9,1.4h50.6h0.5h35c0-0.5,0-1,0-1.4H346.2z"/>
			<linearGradient id="SVGID_38_" gradientUnits="userSpaceOnUse" x1="207.4843" y1="117.5087" x2="316.4873" y2="117.5087">
				<stop  offset="0" style="stop-color:#DA126A"/>
				<stop  offset="1" style="stop-color:#483ED5"/>
			</linearGradient>
			<path class="st38" d="M274.2,116.8h-0.5h-66.1c0,0.5-0.1,1-0.1,1.4h66.2h0.5h41.7c0.2-0.5,0.4-1,0.6-1.4H274.2z"/>
			<linearGradient id="SVGID_39_" gradientUnits="userSpaceOnUse" x1="210.6103" y1="103.1083" x2="328.4457" y2="103.1083">
				<stop  offset="0" style="stop-color:#DA126A"/>
				<stop  offset="1" style="stop-color:#483ED5"/>
			</linearGradient>
			<path class="st39" d="M273.7,102.4h-62.5c-0.2,0.5-0.4,1-0.6,1.4h63.1h0.5h52.2c0.7-0.5,1.3-1,2-1.4h-54.2H273.7z"/>
			<linearGradient id="SVGID_40_" gradientUnits="userSpaceOnUse" x1="214.0446" y1="95.9081" x2="344.3359" y2="95.9081">
				<stop  offset="0" style="stop-color:#DA126A"/>
				<stop  offset="1" style="stop-color:#483ED5"/>
			</linearGradient>
			<path class="st40" d="M273.7,95.2h-58.8c-0.3,0.5-0.6,1-0.9,1.4h59.7h0.5h66.2c1.3-0.5,2.6-1,3.9-1.4h-70.1H273.7z"/>
			<linearGradient id="SVGID_41_" gradientUnits="userSpaceOnUse" x1="220.6223" y1="160.7088" x2="298.3415" y2="160.7088">
				<stop  offset="0" style="stop-color:#DA126A"/>
				<stop  offset="1" style="stop-color:#483ED5"/>
			</linearGradient>
			<path class="st41" d="M274.2,160h-0.5h-53.1c0.4,0.5,0.9,1,1.3,1.4h51.8h0.5h22.9c0.4-0.5,0.8-1,1.2-1.4H274.2z"/>
			<linearGradient id="SVGID_42_" gradientUnits="userSpaceOnUse" x1="211.8486" y1="146.3085" x2="306.6479" y2="146.3085">
				<stop  offset="0" style="stop-color:#DA126A"/>
				<stop  offset="1" style="stop-color:#483ED5"/>
			</linearGradient>
			<path class="st42" d="M274.2,145.6h-0.5h-61.9c0.2,0.5,0.4,1,0.6,1.4h61.2h0.5H306c0.2-0.5,0.4-1,0.6-1.4H274.2z"/>
			<linearGradient id="SVGID_43_" gradientUnits="userSpaceOnUse" x1="228.4553" y1="167.9081" x2="291.0223" y2="167.9081">
				<stop  offset="0" style="stop-color:#DA126A"/>
				<stop  offset="1" style="stop-color:#483ED5"/>
			</linearGradient>
			<path class="st43" d="M274.2,167.2h-0.5h-45.2c0.7,0.5,1.4,1,2.1,1.4h43.2h0.5H289c0.7-0.5,1.3-0.9,2-1.4H274.2z"/>
			<linearGradient id="SVGID_44_" gradientUnits="userSpaceOnUse" x1="215.4528" y1="153.5087" x2="303.1538" y2="153.5087">
				<stop  offset="0" style="stop-color:#DA126A"/>
				<stop  offset="1" style="stop-color:#483ED5"/>
			</linearGradient>
			<path class="st44" d="M274.2,152.8h-0.5h-58.2c0.3,0.5,0.6,1,0.9,1.4h57.4h0.5h28.1c0.3-0.5,0.6-1,0.8-1.4H274.2z"/>
			<linearGradient id="SVGID_45_" gradientUnits="userSpaceOnUse" x1="209.4045" y1="139.1083" x2="309.4089" y2="139.1083">
				<stop  offset="0" style="stop-color:#DA126A"/>
				<stop  offset="1" style="stop-color:#483ED5"/>
			</linearGradient>
			<path class="st45" d="M274.2,138.4h-0.5h-64.3c0.1,0.5,0.3,1,0.4,1.4h63.9h0.5h34.7c0.2-0.5,0.3-1,0.5-1.4H274.2z"/>
			<linearGradient id="SVGID_46_" gradientUnits="userSpaceOnUse" x1="207.924" y1="131.9081" x2="311.7838" y2="131.9081">
				<stop  offset="0" style="stop-color:#DA126A"/>
				<stop  offset="1" style="stop-color:#483ED5"/>
			</linearGradient>
			<path class="st46" d="M273.7,131.2h-65.8c0.1,0.5,0.1,1,0.2,1.4h65.6h0.5h37.1c0.2-0.5,0.3-1,0.5-1.4h-37.6H273.7z"/>
			<linearGradient id="SVGID_47_" gradientUnits="userSpaceOnUse" x1="207.3334" y1="124.7088" x2="314.0248" y2="124.7088">
				<stop  offset="0" style="stop-color:#DA126A"/>
				<stop  offset="1" style="stop-color:#483ED5"/>
			</linearGradient>
			<path class="st47" d="M273.7,124h-66.4c0,0.5,0,1,0,1.4h66.3h0.5h39.4c0.1-0.5,0.3-1,0.4-1.4h-39.8H273.7z"/>
			<linearGradient id="SVGID_48_" gradientUnits="userSpaceOnUse" x1="208.5224" y1="110.3084" x2="320.6003" y2="110.3084">
				<stop  offset="0" style="stop-color:#DA126A"/>
				<stop  offset="1" style="stop-color:#483ED5"/>
			</linearGradient>
			<path class="st48" d="M274.2,111h45.4c0.3-0.5,0.7-1,1-1.4h-46.4h-0.5h-64.9c-0.1,0.5-0.2,1-0.3,1.4h65.2H274.2z"/>
			<linearGradient id="SVGID_49_" gradientUnits="userSpaceOnUse" x1="242.4025" y1="175.1083" x2="277.3156" y2="175.1083">
				<stop  offset="0" style="stop-color:#DA126A"/>
				<stop  offset="1" style="stop-color:#483ED5"/>
			</linearGradient>
			<path class="st49" d="M277.3,174.4h-3.1h-0.5h-31.3c1.6,0.6,3.3,1,5,1.4h24.8C273.9,175.4,275.6,175,277.3,174.4z"/>
		</g>

<!--		<circle class="st52" cx="338.2" cy="215.4" r="13.6"/>-->
	</g>
</g>
</svg>
