<svg id="Layer_1" data-name="Layer 1" xmlns="http://www.w3.org/2000/svg" viewBox="0 0 93 93"><defs><style>.cls-1{fill:none;stroke:#fff;stroke-linecap:round;stroke-linejoin:round;}</style></defs><title>Satellite</title><rect class="cls-1" x="3.75" y="66.13" width="7.06" height="12.1" transform="translate(-48.91 26.29) rotate(-45)"/><rect class="cls-1" x="8.74" y="61.14" width="7.06" height="12.1" transform="translate(-43.92 28.36) rotate(-45)"/><rect class="cls-1" x="13.73" y="56.14" width="7.06" height="12.1" transform="translate(-38.92 30.42) rotate(-45)"/><rect class="cls-1" x="18.73" y="51.15" width="7.06" height="12.1" transform="translate(-33.93 32.49) rotate(-45)"/><rect class="cls-1" x="53.68" y="16.2" width="7.06" height="12.1" transform="translate(1.02 46.97) rotate(-45)"/><rect class="cls-1" x="58.67" y="11.2" width="7.06" height="12.1" transform="translate(6.02 49.04) rotate(-45)"/><rect class="cls-1" x="63.66" y="6.21" width="7.06" height="12.1" transform="translate(11.01 51.1) rotate(-45)"/><rect class="cls-1" x="68.65" y="1.22" width="7.06" height="12.1" transform="translate(16 53.17) rotate(-45)"/><rect class="cls-1" x="23.72" y="50.7" width="7.06" height="3.03" transform="translate(-28.94 34.56) rotate(-45)"/><rect class="cls-1" x="17.29" y="79.68" width="7.06" height="12.1" transform="translate(-54.52 39.83) rotate(-45)"/><rect class="cls-1" x="22.28" y="74.68" width="7.06" height="12.1" transform="translate(-49.53 41.9) rotate(-45)"/><rect class="cls-1" x="27.27" y="69.69" width="7.06" height="12.1" transform="translate(-44.54 43.97) rotate(-45)"/><rect class="cls-1" x="32.26" y="64.7" width="7.06" height="12.1" transform="translate(-39.54 46.03) rotate(-45)"/><rect class="cls-1" x="37.26" y="64.24" width="7.06" height="3.03" transform="translate(-34.55 48.1) rotate(-45)"/><rect class="cls-1" x="48.68" y="25.73" width="7.06" height="3.03" transform="translate(-3.97 44.9) rotate(-45)"/><rect class="cls-1" x="67.22" y="29.74" width="7.06" height="12.1" transform="translate(-4.59 60.51) rotate(-45)"/><rect class="cls-1" x="72.21" y="24.75" width="7.06" height="12.1" transform="translate(0.4 62.58) rotate(-45)"/><rect class="cls-1" x="77.2" y="19.76" width="7.06" height="12.1" transform="translate(5.4 64.65) rotate(-45)"/><rect class="cls-1" x="82.19" y="14.76" width="7.06" height="12.1" transform="translate(10.39 66.71) rotate(-45)"/><rect class="cls-1" x="62.22" y="39.28" width="7.06" height="3.03" transform="translate(-9.58 58.44) rotate(-45)"/><rect class="cls-1" x="32.38" y="33.39" width="28.24" height="26.23" rx="2.02" ry="2.02" transform="translate(-19.26 46.5) rotate(-45)"/><rect class="cls-1" x="57.97" y="57.98" width="14.12" height="14.12" rx="2.02" ry="2.02" transform="translate(-26.94 65.04) rotate(-45)"/><path class="cls-1" d="M72.53,62.55,69,66.17a2,2,0,0,1-2.79,0L64,64a2,2,0,0,1,0-2.84l3.57-3.57"/><path class="cls-1" d="M30.1,44.36l-3-3.07a1.73,1.73,0,0,1,0-2.42L38.87,27a1.73,1.73,0,0,1,2.42,0l3.07,3"/><path class="cls-1" d="M28,37.93l-7.35-7.35a1.6,1.6,0,0,1-.15-2.27l7.86-7.86a1.6,1.6,0,0,1,2.27.15L37.93,28"/><path class="cls-1" d="M56.49,63.62l-5.71-2.86"/><path class="cls-1" d="M60.76,50.78l2.86,5.71"/><line class="cls-1" x1="29.38" y1="36.51" x2="33.66" y2="40.79"/><line class="cls-1" x1="32.94" y1="32.94" x2="37.23" y2="37.23"/><line class="cls-1" x1="36.51" y1="29.38" x2="40.79" y2="33.66"/><path class="cls-1" d="M24.21,7.09c-.69-.69-5.05,2.58-9.81,7.31s-8,9.08-7.31,9.81,5-2.58,9.82-7.3,8-9.08,7.3-9.82"/><path class="cls-1" d="M7.09,24.21c2.86,2.85,9,1.34,13.69-3.43S27.06,10,24.21,7.09"/><polygon class="cls-1" points="22.25 19.4 19.4 22.25 22.25 26.53 26.53 22.25 22.25 19.4"/><line class="cls-1" x1="16.91" y1="16.91" x2="11.55" y2="11.55"/><circle class="cls-1" cx="10.13" cy="10.13" r="2.02"/><path class="cls-1" d="M51.16,45.05a4.54,4.54,0,1,1-3.52-3.28"/><path class="cls-1" d="M55.72,43.71a9.07,9.07,0,1,1-7.06-6.57"/></svg>