<svg id="Layer_3" data-name="Layer 3" xmlns="http://www.w3.org/2000/svg" viewBox="0 0 32 16"><defs><style>.cls-1{fill:none;stroke:#fff;stroke-linecap:round;stroke-linejoin:round;}</style></defs><title>Space Shuttle</title><line class="cls-1" x1="27.56" y1="8.5" x2="23.56" y2="8.5"/><path class="cls-1" d="M29,10c-.55,0-1,.9-1,2s.45,2,1,2"/><path class="cls-1" d="M29,10,25.76,6.62A2,2,0,0,0,24.31,6H10.5L4.5.5H.5L3,6v7L.5,15.5H10L21.5,14h7.3A3,3,0,0,0,31,13.13C32.46,11.59,30.46,10,29,10Z"/><circle class="cls-1" cx="17" cy="10" r="0.5"/><circle class="cls-1" cx="12.5" cy="10" r="0.5"/><circle class="cls-1" cx="8" cy="10" r="0.5"/><rect class="cls-1" x="1.5" y="7.5" width="1" height="1"/><rect class="cls-1" x="1.5" y="10.5" width="1" height="1"/></svg>