<svg width="103" height="158" viewBox="0 0 103 158" fill="none" xmlns="http://www.w3.org/2000/svg">
<path d="M32.4707 1.28107C37.8722 -0.0508886 43.3126 3.2389 44.6452 8.64285L47.3329 19.5423C47.8363 19.483 48.3091 19.4312 48.8199 19.4024C48.9495 19.4028 49.0411 19.3802 49.1707 19.3806L64.4811 18.4553C70.0319 18.1229 74.7985 22.3561 75.1245 27.8787C75.4504 33.4013 71.2275 38.1996 65.7072 38.5245L50.5569 39.4428C40.659 40.3937 32.4698 43.4171 27.1293 47.2279C21.7889 51.0387 20.2066 54.8619 20.3951 57.9893C20.5904 61.4066 21.4999 63.1256 22.2972 64.1273C23.1401 65.1826 24.6005 66.2475 27.1971 67.1941C32.9768 69.2343 41.133 69.4902 51.6678 69.6777L52.613 69.7037C61.9129 69.8718 73.2863 70.0468 82.5004 73.2805C87.5339 75.0513 92.5717 77.8898 96.4296 82.6386C100.371 87.464 102.426 93.4347 102.84 100.231C103.595 112.352 97.512 122.079 88.5954 128.585C84.8363 131.325 80.5604 133.546 75.8743 135.284L78.3738 145.421C79.7064 150.825 76.4192 156.267 71.0178 157.598C65.6164 158.93 60.1759 155.641 58.8433 150.237L56.2158 139.581C56.0862 139.581 55.9336 139.619 55.804 139.618L55.743 139.633C48.0109 140.309 34.9833 140.121 25.8404 138.489C20.3852 137.503 16.7345 132.282 17.7196 126.824C18.7047 121.367 23.9227 117.716 29.3779 118.703C36.456 119.969 47.6463 120.189 53.9525 119.638C64.0411 118.673 71.8636 115.869 76.7459 112.301C81.3837 108.923 82.9806 105.29 82.7485 101.461C82.5303 98.0818 81.6133 96.3323 80.816 95.3306C79.935 94.2523 78.4746 93.1874 75.8475 92.2483C70.0372 90.2156 61.8506 89.9673 51.2853 89.7873L50.3781 89.7843C41.1088 89.6087 29.7278 89.4031 20.5137 86.1694C15.4802 84.3987 10.4653 81.5221 6.60743 76.7733C2.69641 71.9404 0.671884 65.9622 0.288925 59.1581C-0.38986 46.9536 6.47072 37.2297 15.4174 30.8456C19.077 28.2266 23.2614 26.0288 27.7723 24.2363L25.1147 13.459C23.7821 8.05503 27.0693 2.61303 32.4707 1.28107Z" fill="white" fill-opacity="0.25"/>
</svg>
