<svg width="181" height="142" viewBox="0 0 181 142" fill="none" xmlns="http://www.w3.org/2000/svg">
<path d="M167.973 74.2494C184.86 57.2553 184.86 29.7338 167.973 12.7396C153.028 -2.29942 129.475 -4.2545 112.288 8.10761L111.81 8.43847C107.506 11.5365 106.519 17.5521 109.598 21.8533C112.677 26.1545 118.655 27.1771 122.929 24.0791L123.407 23.7482C133.002 16.8603 146.123 17.9432 154.433 26.335C163.848 35.8096 163.848 51.1494 154.433 60.624L120.896 94.4318C111.481 103.906 96.2374 103.906 86.8221 94.4318C78.4829 86.04 77.4069 72.8357 84.2516 63.2107L84.5804 62.7295C87.659 58.3982 86.6428 52.3826 82.3686 49.3146C78.0943 46.2467 72.0865 47.2393 69.0378 51.5404L68.709 52.0217C56.3944 69.2865 58.3372 92.9881 73.2821 108.027C90.1698 125.021 117.519 125.021 134.407 108.027L167.973 74.2494ZM12.6658 67.2111C-4.22192 84.2053 -4.22192 111.727 12.6658 128.721C27.6106 143.76 51.1637 145.715 68.3503 133.353L68.8285 133.022C73.1326 129.924 74.119 123.908 71.0404 119.607C67.9617 115.306 61.9838 114.283 57.7095 117.381L57.2313 117.712C47.6367 124.6 34.5151 123.517 26.2058 115.126C16.7905 105.621 16.7905 90.2811 26.2058 80.8064L59.7421 47.0287C69.1573 37.5541 84.4011 37.5541 93.8163 47.0287C102.156 55.4205 103.232 68.6248 96.3868 78.2799L96.058 78.7611C92.9794 83.0924 93.9957 89.108 98.2699 92.176C102.544 95.2439 108.552 94.2514 111.601 89.9502L111.929 89.4689C124.244 72.174 122.301 48.4725 107.356 33.4334C90.4687 16.4393 63.1196 16.4393 46.2319 33.4334L12.6658 67.2111Z" fill="white" fill-opacity="0.25"/>
</svg>
