<svg width="146" height="146" viewBox="0 0 146 146" fill="none" xmlns="http://www.w3.org/2000/svg">
<path d="M75.7041 31.2277L96.9544 40.1503V3.66868L114.252 63.8808L96.9544 56.2238V97.4515L75.7041 31.2277ZM102.014 0.631177L102.425 2.11829L107.232 18.8562C119.976 23.7605 129.02 36.132 129.02 50.5917C129.02 67.1398 118.173 80.9351 102.646 83.9726V100.932C127.28 97.6097 145.463 76.189 145.463 50.6234C145.463 25.1527 126.553 4.04836 102.014 0.631177ZM3.54173 142.128C7.08345 145.672 10.8465 146.02 12.5858 145.45C14.2934 144.881 21.1554 139.154 31.6857 131.402C42.216 123.618 42.3109 120.106 45.2834 113.462C48.2559 106.849 54.8966 99.9827 63.4663 96.882L66.5336 92.2308C74.3444 97.5781 83.2935 100.742 92.2427 101.312L91.5786 99.2234L86.5506 83.5613C71.8462 79.796 60.9681 66.4753 60.9681 50.5917C60.9681 33.3476 73.1111 18.2866 91.3256 16.7046V0.219849C65.0158 1.83352 44.2714 23.7921 44.2714 50.6234C44.2714 61.2546 47.8132 71.0948 53.4419 79.2265L48.8251 82.264C45.7261 90.8386 38.864 97.4515 32.2549 100.426C25.6458 103.4 22.0725 103.495 14.2934 114.031C6.51425 124.536 0.790588 131.402 0.221375 133.11C-0.347824 134.819 3.05176e-05 138.584 3.54173 142.128ZM6.67236 136.464C6.67236 135.072 7.81076 133.933 9.20215 133.933C10.5935 133.933 11.7319 135.072 11.7319 136.464C11.7319 137.857 10.5935 138.996 9.20215 138.996C7.81076 138.996 6.67236 137.857 6.67236 136.464Z" fill="white" fill-opacity="0.25"/>
</svg>
