<svg width="156" height="156" viewBox="0 0 156 156" fill="none" xmlns="http://www.w3.org/2000/svg">
<path d="M106.856 78C106.856 84.7641 106.491 91.2844 105.854 97.5H49.5725C48.9047 91.2844 48.5708 84.7641 48.5708 78C48.5708 71.2359 48.9351 64.7156 49.5725 58.5H105.854C106.522 64.7156 106.856 71.2359 106.856 78ZM115.598 58.5H152.968C154.576 64.7461 155.426 71.2664 155.426 78C155.426 84.7336 154.576 91.2539 152.968 97.5H115.598C116.236 91.2234 116.57 84.7031 116.57 78C116.57 71.2969 116.236 64.7766 115.598 58.5ZM149.78 48.75H114.354C111.318 29.2805 105.308 12.9797 97.5665 2.55937C121.336 8.86641 140.673 26.1727 149.75 48.75H149.78ZM104.518 48.75H50.9082C52.76 37.6594 55.6135 27.8484 59.1046 19.8961C62.292 12.7055 65.8438 7.49531 69.2741 4.20469C72.674 0.975 75.4972 0 77.7132 0C79.9293 0 82.7525 0.975 86.1524 4.20469C89.5827 7.49531 93.1345 12.7055 96.3219 19.8961C99.8433 27.818 102.666 37.6289 104.518 48.75ZM41.0727 48.75H5.64635C14.7534 26.1727 34.0603 8.86641 57.8599 2.55937C50.119 12.9797 44.1083 29.2805 41.0727 48.75ZM2.4589 58.5H39.828C39.1905 64.7766 38.8566 71.2969 38.8566 78C38.8566 84.7031 39.1905 91.2234 39.828 97.5H2.4589C0.849989 91.2539 0 84.7336 0 78C0 71.2664 0.849989 64.7461 2.4589 58.5ZM59.1046 136.073C55.5832 128.152 52.76 118.341 50.9082 107.25H104.518C102.666 118.341 99.8129 128.152 96.3219 136.073C93.1345 143.264 89.5827 148.474 86.1524 151.765C82.7525 155.025 79.9293 156 77.7132 156C75.4972 156 72.674 155.025 69.2741 151.795C65.8438 148.505 62.292 143.295 59.1046 136.104V136.073ZM41.0727 107.25C44.1083 126.72 50.119 143.02 57.8599 153.441C34.0603 147.134 14.7534 129.827 5.64635 107.25H41.0727ZM149.78 107.25C140.673 129.827 121.366 147.134 97.5969 153.441C105.338 143.02 111.318 126.72 114.384 107.25H149.78Z" fill="white" fill-opacity="0.25"/>
</svg>
